<svg width="931" height="567" viewBox="0 0 931 567" fill="none" xmlns="http://www.w3.org/2000/svg">
<path d="M420.313 524.983C419.313 521.363 418.313 517.703 416.313 514.553C414.459 511.882 412.256 509.471 409.763 507.383C402.513 500.803 393.613 494.123 384.003 495.783C381.031 496.441 378.159 497.49 375.463 498.903C374.063 499.553 372.653 500.203 371.213 500.753C367.16 502.448 362.679 502.839 358.393 501.873C356.193 501.283 354.143 500.223 351.973 499.563C350.943 499.254 349.89 499.026 348.823 498.883C350.92 497.945 352.954 496.873 354.913 495.673C365.693 489.073 374.293 477.143 373.093 464.383C372.683 460.093 371.213 455.983 369.753 451.933L365.913 441.313C364.253 436.713 362.533 432.023 359.503 428.203C356.133 423.943 351.333 421.053 346.373 418.903C335.723 414.273 324.083 412.643 312.593 411.063L311.793 410.953V286.823C311.793 284.701 310.951 282.667 309.45 281.166C307.95 279.666 305.915 278.823 303.793 278.823H288.693C288.027 274.743 287.36 270.67 286.693 266.603C284.793 254.993 282.823 243.173 277.473 232.723C273.973 225.883 268.403 219.353 260.893 218.013C259.417 217.88 257.967 217.544 256.583 217.013C254.383 215.933 253.183 213.533 251.493 211.763C247.133 207.193 240.043 207.123 234.203 204.763C229.043 202.713 224.823 198.853 220.123 195.883C215.423 192.913 209.583 190.803 204.383 192.733C204.383 193.113 204.313 193.493 204.273 193.863L200.933 192.323C197.333 190.653 193.663 188.943 190.773 186.203C187.063 182.703 185.083 178.063 183.543 173.133C183.383 172.623 183.233 172.133 183.073 171.583C189.465 165.062 193.792 156.801 195.513 147.833L196.323 150.463C196.506 151.054 196.719 151.635 196.963 152.203C197.377 153.302 198.065 154.277 198.963 155.033C199.22 155.234 199.502 155.399 199.803 155.523C200.079 155.633 200.369 155.707 200.663 155.743C201.079 155.795 201.5 155.764 201.903 155.653C202.58 155.444 203.2 155.085 203.719 154.604C204.239 154.123 204.643 153.532 204.903 152.873C205.063 152.48 205.18 152.071 205.253 151.653C205.292 151.401 205.315 151.148 205.323 150.893C205.323 150.813 205.323 150.733 205.323 150.653C205.323 150.573 205.323 150.303 205.323 150.133C205.323 149.963 205.323 149.953 205.323 149.853C205.323 149.753 205.323 149.523 205.273 149.353V149.093C205.273 148.893 205.213 148.693 205.173 148.503C205.133 148.313 205.173 148.393 205.173 148.343C205.123 148.093 205.063 147.833 205.013 147.583C205.013 147.523 205.013 147.453 205.013 147.393C205.013 147.333 204.923 146.983 204.873 146.773C204.823 146.563 204.803 146.503 204.773 146.363V146.303C204.673 145.903 204.583 145.513 204.493 145.113C203.767 141.643 203.581 138.08 203.943 134.553C204.542 129.377 205.497 124.248 206.803 119.203L207.013 118.293C207.093 117.943 207.173 117.593 207.243 117.233C207.403 116.513 207.563 115.793 207.713 115.063L208.073 113.223L208.343 111.583V111.373C208.905 107.657 209.022 103.887 208.693 100.143V100.143C208.233 94.9132 206.613 89.9632 203.063 86.0232C200.553 83.2332 197.243 81.1732 194.913 78.2432C192.733 75.5032 191.503 72.1232 189.243 69.4332C183.003 61.9832 166.983 56.2432 157.153 55.2432C145.893 54.1032 127.703 56.9832 118.623 63.6332C115.263 66.0832 112.963 69.6332 110.623 72.9932C106.323 79.2432 101.443 85.4832 94.5533 88.9932C91.9533 90.3132 88.9733 91.3132 87.2433 93.6132C86.2141 95.1723 85.5478 96.9424 85.2934 98.7932C83.9685 105.304 83.2786 111.929 83.2333 118.573V118.573C83.2333 119.403 83.2333 120.233 83.2333 121.073C83.2538 123.564 83.7848 126.025 84.7934 128.303C84.9534 128.643 85.1333 128.973 85.3233 129.303L85.4433 129.513C86.6529 131.242 87.7229 133.065 88.6433 134.963C88.8726 135.495 89.0372 136.052 89.1333 136.623C89.3047 138.088 89.2098 139.572 88.8533 141.003V141.003C88.8533 141.223 88.7633 141.443 88.7233 141.663L88.6333 142.093C88.6333 142.243 88.6333 142.393 88.5533 142.533C88.4733 142.963 88.4033 143.393 88.3433 143.813C88.1917 144.97 88.2665 146.145 88.5633 147.273C88.7003 147.902 88.9689 148.494 89.3516 149.011C89.7343 149.528 90.2223 149.958 90.7833 150.273C91.3529 150.546 91.9593 150.735 92.5833 150.833C93.2133 150.943 93.8533 151.013 94.4733 151.153C95.2706 151.335 96.0406 151.621 96.7634 152.003C97.4558 152.335 98.1041 152.751 98.6933 153.243C98.9849 153.508 99.2619 153.789 99.5233 154.083C100.051 154.688 100.527 155.337 100.943 156.023C101.157 156.377 101.357 156.736 101.543 157.103C102.26 158.55 102.833 160.064 103.253 161.623C103.513 162.553 103.733 163.493 103.923 164.433C104.013 164.853 104.093 165.273 104.163 165.683C104.233 166.093 104.303 166.513 104.363 166.923C104.636 166.908 104.906 166.854 105.163 166.763C106.633 166.233 107.453 164.523 107.913 162.863C107.993 162.583 108.063 162.313 108.123 162.043C108.353 161.043 108.593 159.943 108.823 158.893C112.765 167.264 119.121 174.264 127.073 178.993C127.353 179.823 127.623 180.643 127.863 181.483C129.173 186.013 129.803 190.753 127.533 194.713C125.913 197.523 123.193 199.253 120.153 200.453C119.715 199.869 119.151 199.39 118.503 199.053C115.873 197.733 112.713 199.333 110.503 201.303C106.503 204.923 103.243 210.113 97.9833 211.303C96.0833 211.743 93.9834 211.653 92.4034 212.813C91.3583 213.796 90.4832 214.945 89.8133 216.213C88.672 217.852 87.1371 219.178 85.3495 220.069C83.562 220.961 81.5793 221.388 79.5833 221.313C77.7533 221.223 75.5833 220.803 74.3333 222.143C73.4033 223.143 73.3333 224.723 72.3333 225.673C70.9933 226.993 68.7933 226.353 66.9233 226.273C63.3633 226.123 60.0533 228.423 58.0233 231.373C55.9933 234.323 55.0233 237.853 54.0233 241.373V241.433C53.7667 241.62 53.5229 241.824 53.2934 242.043C52.3238 243.076 51.5722 244.294 51.0833 245.623C42.9963 264.036 38.223 283.731 36.9833 303.803C37.0031 304.781 36.7834 305.749 36.3433 306.623C35.8959 307.194 35.4044 307.729 34.8733 308.223C34.3982 308.805 34.0447 309.476 33.8338 310.197C33.6229 310.918 33.5589 311.674 33.6456 312.42C33.7324 313.166 33.968 313.887 34.3387 314.54C34.7093 315.194 35.2074 315.766 35.8033 316.223C36.0911 315.702 36.4513 315.224 36.8733 314.803C36.7633 315.263 36.6633 315.713 36.5933 316.123C36.1917 319.041 36.1548 321.997 36.4833 324.923C37.43 338.817 38.3867 352.7 39.3534 366.573C39.6234 370.503 39.8933 374.423 40.2533 378.343C40.9533 385.93 41.9533 393.487 43.2533 401.013C43.3133 401.353 43.3833 401.703 43.4733 402.013C35.3233 404.603 28.0733 409.283 25.0233 417.093C23.9633 419.793 23.4834 422.733 22.1834 425.323C20.7534 428.163 18.4033 430.433 16.8433 433.213C14.1533 437.993 14.0333 443.853 15.0133 449.213C16.9033 459.663 22.5534 469.003 30.0134 476.603C29.6834 476.603 29.3434 476.603 29.0134 476.603C26.5761 476.873 24.2365 477.712 22.1834 479.053C6.40335 488.273 -2.61665 508.053 0.673351 526.113C1.32335 529.643 2.45335 533.223 4.81335 535.913C6.77501 538.052 9.29724 539.597 12.0933 540.373C13.842 540.899 15.6425 541.235 17.4633 541.373C29.7633 542.373 41.6733 536.673 54.0033 536.193C58.0879 536.128 62.1725 536.318 66.2333 536.763C72.1733 537.257 78.1233 537.57 84.0833 537.703C93.7733 537.933 99.2234 535.353 105.403 528.113C106.922 526.312 108.191 524.314 109.173 522.173C114.433 521.873 120.243 521.413 124.443 521.073L124.503 521.653C124.733 523.653 125.083 525.953 126.683 527.213C127.583 527.834 128.607 528.253 129.683 528.443C139.783 530.923 150.003 533.443 160.403 533.443C165.284 533.345 170.155 532.971 174.993 532.323L193.263 530.213C198.587 530.888 203.841 532.032 208.963 533.633C214.243 535.423 219.173 538.083 224.333 540.193C236.333 545.053 249.233 546.793 262.013 548.493C264.193 548.783 266.693 548.983 268.303 547.493C270.383 545.493 269.693 542.153 269.103 539.353C268.863 538.203 268.683 537.053 268.543 535.893C277.167 538.167 285.605 541.095 293.783 544.653L295.213 545.283C295.633 547.463 297.643 549.203 299.573 551.553C300.207 552.545 300.948 553.464 301.783 554.293C302.738 554.913 303.823 555.303 304.953 555.433C318.445 557.947 332.22 558.569 345.883 557.283C348.68 556.902 351.507 556.805 354.323 556.993C356.392 557.275 358.433 557.733 360.423 558.363L371.993 561.683C380.523 564.123 389.253 566.593 398.103 566.043C399.898 565.93 401.68 565.673 403.433 565.273C410.433 563.653 416.953 559.743 420.313 553.453C425.063 544.903 422.873 534.383 420.313 524.983Z" fill="url(#paint0_linear)"/>
<path d="M96.6034 523.033C94.4934 518.233 92.4934 512.713 94.6034 507.913C95.9807 505.086 98.3466 502.863 101.253 501.663C104.13 500.49 107.162 499.742 110.253 499.443C119.958 498.17 129.778 498.036 139.513 499.043C140.223 504.663 138.723 510.363 137.433 515.793C136.263 520.793 135.593 521.533 130.433 521.793C127.093 521.973 97.3934 524.803 96.6034 523.033Z" fill="#FBBEBE"/>
<path d="M185.653 490.653C264.63 490.653 328.653 472.744 328.653 450.653C328.653 428.562 264.63 410.653 185.653 410.653C106.677 410.653 42.6533 428.562 42.6533 450.653C42.6533 472.744 106.677 490.653 185.653 490.653Z" fill="#464353"/>
<path opacity="0.1" d="M185.653 490.653C264.63 490.653 328.653 472.744 328.653 450.653C328.653 428.562 264.63 410.653 185.653 410.653C106.677 410.653 42.6533 428.562 42.6533 450.653C42.6533 472.744 106.677 490.653 185.653 490.653Z" fill="black"/>
<path d="M211.293 239.493C206.392 248.965 198.251 256.361 188.353 260.333C182.51 262.462 176.36 263.631 170.143 263.793C163.353 264.103 156.423 263.663 150.043 261.343C141.483 258.243 134.373 251.903 129.043 244.513C123.713 237.123 120.043 228.683 116.853 220.173C115.173 215.743 113.573 211.023 114.363 206.343C119.513 205.173 125.153 203.453 127.813 198.883C130.083 194.963 129.453 190.263 128.143 185.783C127.773 184.513 127.343 183.253 126.913 182.043C125.913 179.143 122.463 173.633 124.913 171.153C126.443 169.583 132.853 168.783 135.063 167.763C141.873 164.623 148.153 160.083 155.633 158.593C162.103 157.303 168.783 158.513 175.243 159.853C176.1 159.978 176.923 160.274 177.663 160.723C178.507 161.434 179.131 162.371 179.463 163.423C181.303 167.903 182.383 172.853 183.863 177.523C185.403 182.413 187.383 187.003 191.093 190.473C193.983 193.183 197.663 194.883 201.263 196.533L210.123 200.593C211.699 201.183 213.129 202.108 214.313 203.303C215.472 204.896 216.164 206.779 216.313 208.743C217.901 219.266 216.145 230.022 211.293 239.493V239.493Z" fill="#FBBEBE"/>
<path opacity="0.1" d="M183.823 177.523C176.768 184.869 167.474 189.665 157.399 191.16C147.324 192.655 137.038 190.764 128.153 185.783C127.783 184.513 127.353 183.253 126.923 182.043C125.923 179.143 122.473 173.633 124.923 171.153C126.453 169.583 132.863 168.783 135.073 167.763C141.883 164.623 148.163 160.083 155.643 158.593C162.113 157.303 168.793 158.513 175.253 159.853C176.11 159.978 176.933 160.274 177.673 160.723C178.517 161.434 179.141 162.371 179.473 163.423C181.263 167.903 182.343 172.853 183.823 177.523Z" fill="black"/>
<path d="M150.653 189.653C176.058 189.653 196.653 169.058 196.653 143.653C196.653 118.248 176.058 97.6531 150.653 97.6531C125.248 97.6531 104.653 118.248 104.653 143.653C104.653 169.058 125.248 189.653 150.653 189.653Z" fill="#FBBEBE"/>
<path d="M290.803 292.943L287.023 270.043C285.113 258.553 283.143 246.843 277.803 236.493C274.293 229.713 268.723 223.253 261.213 221.913C259.734 221.781 258.28 221.445 256.893 220.913C254.693 219.853 253.493 217.473 251.803 215.713C247.443 211.193 240.343 211.123 234.503 208.823C229.343 206.823 225.123 202.973 220.423 200.033C215.723 197.093 209.873 195.033 204.673 196.913C203.833 205.863 202.943 215.013 199.143 223.163C196.67 228.469 193.042 233.155 188.525 236.878C184.008 240.601 178.715 243.268 173.035 244.683C167.355 246.097 161.43 246.225 155.694 245.055C149.958 243.886 144.556 241.449 139.883 237.923C130.973 231.213 125.263 220.863 122.603 210.033C121.953 207.393 121.213 204.363 118.783 203.153C116.153 201.833 112.993 203.433 110.783 205.373C106.783 208.963 103.513 214.103 98.2532 215.313C96.3532 215.753 94.2532 215.663 92.6732 216.813C91.6231 217.782 90.7441 218.922 90.0732 220.183C88.9221 221.81 87.3842 223.124 85.5982 224.007C83.8122 224.891 81.8344 225.315 79.8432 225.243C78.0132 225.153 75.8432 224.733 74.5932 226.063C73.6632 227.063 73.5932 228.623 72.5932 229.553C71.2432 230.863 69.0532 230.223 67.1732 230.153C63.6132 230.003 60.3032 232.283 58.2632 235.153C56.2232 238.023 55.2632 241.573 54.2632 245.013C65.1932 269.353 75.1932 293.723 86.1232 318.063C86.6353 318.981 86.907 320.013 86.9132 321.063C86.694 322.154 86.2288 323.18 85.5532 324.063C80.1932 332.673 80.3632 343.503 80.9532 353.623C81.5432 363.743 82.2632 374.433 77.7432 383.503C76.5132 385.993 74.9132 388.273 73.7432 390.763C71.0032 396.403 70.0132 414.443 71.6132 420.503H297.693C293.383 408.653 295.023 384.873 295.923 372.293C296.553 363.493 294.923 354.703 294.223 345.903C292.693 327.933 293.773 310.883 290.803 292.943Z" fill="#FF6347"/>
<path d="M36.9431 319.143C36.5431 322.037 36.5028 324.969 36.8231 327.873L39.6931 369.143C39.9631 373.033 40.2331 376.913 40.5931 380.793C41.2831 388.323 42.3131 395.793 43.5931 403.253C43.6219 404.312 44.0698 405.317 44.8385 406.046C45.6072 406.776 46.6339 407.17 47.6931 407.143C60.3431 409.823 73.4131 409.713 86.3231 408.983C106.023 407.883 125.693 405.373 145.423 405.803C150.503 405.913 156.423 405.803 159.503 401.803C162.583 397.803 160.793 391.333 156.773 388.103C152.753 384.873 147.293 384.103 142.133 384.103C135.303 384.033 128.473 385.003 121.663 384.603C115.413 384.233 109.303 382.723 103.243 381.213L86.2431 376.983C86.8931 371.833 88.8531 366.983 90.7131 362.093C94.0531 353.423 97.1731 344.463 97.2331 335.173C97.2931 325.883 93.7931 316.113 86.1831 310.793C79.9231 306.423 71.8631 305.613 64.2331 305.793C58.6831 305.953 49.0931 304.623 44.0231 306.793C40.0131 308.553 37.6931 315.213 36.9431 319.143Z" fill="#FBBEBE"/>
<path d="M302.373 413.503C305.703 412.233 309.373 412.693 312.943 413.173C324.433 414.743 336.093 416.353 346.743 420.943C351.743 423.083 356.503 425.943 359.883 430.153C362.883 433.943 364.633 438.583 366.293 443.153L370.133 453.673C371.593 457.673 373.073 461.753 373.483 466.003C374.683 478.593 366.073 490.463 355.243 497.003C344.413 503.543 331.663 505.873 319.243 508.313C306.823 510.753 294.353 513.453 281.983 516.313C276.214 517.811 270.36 518.963 264.453 519.763C251.213 521.263 237.373 519.053 224.793 523.433C219.793 525.183 214.883 527.783 209.693 528.993C206.246 529.719 202.76 530.249 199.253 530.583L175.443 533.303C170.601 533.951 165.727 534.325 160.843 534.423C150.443 534.423 140.213 531.963 130.113 529.503C129.039 529.315 128.017 528.903 127.113 528.293C125.513 527.033 125.163 524.803 124.933 522.783C123.913 513.843 123.02 504.893 122.253 495.933C122.013 493.023 121.833 489.873 123.423 487.423C125.423 484.423 129.323 483.483 132.883 482.903C147.979 480.434 163.271 479.373 178.563 479.733C184.373 473.923 193.953 473.893 201.563 470.733C204.363 469.448 207.072 467.974 209.673 466.323C223.286 458.381 238.498 453.575 254.203 452.253C257.279 452.159 260.334 451.723 263.313 450.953C269.203 449.123 274.573 444.143 280.623 445.363C281.373 443.293 281.893 440.523 283.623 439.103C284.483 438.373 285.543 437.883 286.333 437.103C288.003 435.413 288.153 432.753 287.903 430.393C287.653 428.033 287.093 425.613 287.703 423.313C287.957 422.442 288.331 421.611 288.813 420.843C291.813 415.663 296.343 413.003 302.373 413.503Z" fill="#464353"/>
<path opacity="0.05" d="M302.373 413.503C305.703 412.233 309.373 412.693 312.943 413.173C324.433 414.743 336.093 416.353 346.743 420.943C351.743 423.083 356.503 425.943 359.883 430.153C362.883 433.943 364.633 438.583 366.293 443.153L370.133 453.673C371.593 457.673 373.073 461.753 373.483 466.003C374.683 478.593 366.073 490.463 355.243 497.003C344.413 503.543 331.663 505.873 319.243 508.313C306.823 510.753 294.353 513.453 281.983 516.313C276.214 517.811 270.36 518.963 264.453 519.763C251.213 521.263 237.373 519.053 224.793 523.433C219.793 525.183 214.883 527.783 209.693 528.993C206.246 529.719 202.76 530.249 199.253 530.583L175.443 533.303C170.601 533.951 165.727 534.325 160.843 534.423C150.443 534.423 140.213 531.963 130.113 529.503C129.039 529.315 128.017 528.903 127.113 528.293C125.513 527.033 125.163 524.803 124.933 522.783C123.913 513.843 123.02 504.893 122.253 495.933C122.013 493.023 121.833 489.873 123.423 487.423C125.423 484.423 129.323 483.483 132.883 482.903C147.979 480.434 163.271 479.373 178.563 479.733C184.373 473.923 193.953 473.893 201.563 470.733C204.363 469.448 207.072 467.974 209.673 466.323C223.286 458.381 238.498 453.575 254.203 452.253C257.279 452.159 260.334 451.723 263.313 450.953C269.203 449.123 274.573 444.143 280.623 445.363C281.373 443.293 281.893 440.523 283.623 439.103C284.483 438.373 285.543 437.883 286.333 437.103C288.003 435.413 288.153 432.753 287.903 430.393C287.653 428.033 287.093 425.613 287.703 423.313C287.957 422.442 288.331 421.611 288.813 420.843C291.813 415.663 296.343 413.003 302.373 413.503Z" fill="black"/>
<path d="M105.803 529.213C99.6132 536.383 94.1632 538.943 84.4732 538.713C78.5132 538.573 72.5598 538.263 66.6132 537.783C62.5486 537.344 58.461 537.153 54.3732 537.213C42.0332 537.693 30.1232 543.343 17.8132 542.353C15.9929 542.21 14.193 541.875 12.4432 541.353C9.65054 540.584 7.12665 539.054 5.15317 536.933C2.79317 534.263 1.66317 530.723 1.01317 527.223C-2.27683 509.283 6.74317 489.743 22.5332 480.613C24.5934 479.283 26.9353 478.451 29.3732 478.183C31.7637 478.173 34.1268 478.693 36.2932 479.703L36.4432 479.763C42.8583 482.403 48.6846 486.292 53.5832 491.203C54.3264 492.054 55.2131 492.769 56.2032 493.313C57.1912 493.686 58.2371 493.883 59.2932 493.893L72.4332 494.723C74.6594 494.79 76.872 495.095 79.0332 495.633C81.4156 496.465 83.735 497.468 85.9732 498.633C93.0432 501.793 100.883 502.633 108.523 503.853C109.259 503.894 109.962 504.175 110.523 504.653C110.828 505.033 111.04 505.478 111.143 505.953C112.217 509.972 112.292 514.192 111.361 518.246C110.43 522.3 108.522 526.065 105.803 529.213V529.213Z" fill="#3F3D56"/>
<path opacity="0.1" d="M36.4432 479.773C31.3451 484.641 26.9225 490.17 23.2932 496.213C17.4692 506.186 13.8098 517.273 12.5532 528.753C12.0766 532.941 12.0397 537.168 12.4432 541.363C9.65054 540.594 7.12665 539.064 5.15317 536.943C2.79317 534.273 1.66317 530.733 1.01317 527.233C-2.27683 509.293 6.74317 489.753 22.5332 480.623C24.5934 479.293 26.9353 478.461 29.3732 478.193C31.7637 478.183 34.1268 478.703 36.2932 479.713L36.4432 479.773Z" fill="black"/>
<path d="M290.933 504.653C298.283 504.453 306.533 504.083 311.933 509.033C317.083 513.713 317.763 521.433 318.103 528.383L318.493 536.453C318.613 538.913 318.713 541.453 317.723 543.733C315.963 547.733 311.133 549.663 306.723 549.433C302.313 549.203 298.263 547.273 294.233 545.533C283.292 540.82 271.9 537.231 260.233 534.823C260.613 529.243 261.246 523.69 262.133 518.163C262.743 514.333 262.843 507.923 265.403 504.743C268.113 501.383 271.643 503.203 275.323 503.823C280.487 504.611 285.715 504.889 290.933 504.653V504.653Z" fill="#FBBEBE"/>
<path d="M96.6932 423.563C96.6932 424.563 95.1231 423.563 94.9831 422.493C93.8831 414.403 87.4631 407.733 79.9831 404.493C72.5031 401.253 63.9832 401.083 55.8832 401.853C43.6332 403.013 29.8832 407.703 25.4032 419.153C24.3432 421.833 23.8631 424.733 22.5631 427.303C21.1231 430.123 18.7731 432.373 17.2131 435.113C14.5231 439.853 14.4132 445.663 15.3832 451.023C17.9932 465.323 27.7731 477.553 39.6231 486.023C51.4731 494.493 65.3232 499.553 79.1332 504.113C115.65 516.157 153.115 525.105 191.133 530.863C197.293 531.793 203.513 532.653 209.413 534.633C214.693 536.403 219.633 539.053 224.793 541.133C236.793 545.953 249.703 547.673 262.493 549.363C264.673 549.643 267.173 549.843 268.783 548.363C270.863 546.433 270.173 543.073 269.583 540.303C267.412 529.771 269.234 518.808 274.693 509.543C276.833 505.943 279.613 502.253 279.213 498.083C278.733 493.223 273.893 489.783 269.073 489.003C264.253 488.223 259.353 489.373 254.513 490.003C252.843 490.223 251.023 490.363 249.563 489.513C248.844 489.027 248.192 488.449 247.623 487.793C244.289 484.577 240.022 482.499 235.433 481.857C230.845 481.216 226.172 482.044 222.083 484.223C220.293 485.223 217.583 482.993 215.723 482.153L194.693 472.633C170.533 461.703 146.253 450.723 120.693 443.803C118.654 443.402 116.716 442.596 114.993 441.433C113.723 440.433 112.813 439.073 111.643 437.963C109.093 435.553 105.543 434.593 102.483 432.883C99.4231 431.173 95.9932 426.993 96.6932 423.563Z" fill="#464353"/>
<path d="M420.903 554.253C417.543 560.483 411.023 564.363 404.023 565.963C402.267 566.36 400.481 566.614 398.683 566.723C389.833 567.273 381.093 564.823 372.563 562.403L360.983 559.143C358.992 558.517 356.952 558.062 354.883 557.783C352.067 557.595 349.24 557.692 346.443 558.073C332.757 559.346 318.96 558.727 305.443 556.233C304.312 556.111 303.226 555.724 302.273 555.103C301.438 554.285 300.697 553.376 300.063 552.393C296.913 548.603 293.523 546.393 297.253 541.393C299.403 538.493 303.393 537.043 305.063 533.713C306.733 530.383 305.663 525.653 304.673 522.213C303.323 517.463 298.883 515.413 297.293 511.053C296.103 507.763 298.103 503.943 301.113 502.153C304.123 500.363 307.843 500.223 311.313 500.683C314.783 501.143 318.183 502.123 321.673 502.393C331.933 503.213 342.423 497.923 352.273 500.903C354.443 501.563 356.493 502.613 358.693 503.193C362.982 504.153 367.463 503.765 371.523 502.083C372.963 501.543 374.373 500.893 375.773 500.253C378.473 498.848 381.349 497.808 384.323 497.163C393.933 495.513 402.843 502.163 410.093 508.653C412.582 510.719 414.785 513.106 416.643 515.753C418.643 518.873 419.703 522.503 420.643 526.083C423.293 535.333 425.483 545.753 420.903 554.253Z" fill="#3F3D56"/>
<path opacity="0.1" d="M420.903 554.253C417.543 560.483 411.023 564.363 404.023 565.963C406.746 560.673 407.974 554.74 407.573 548.803C406.973 539.293 402.793 530.333 397.463 522.433C394.184 517.57 390.454 513.027 386.323 508.863C383.143 505.663 379.233 503.123 375.813 500.193C378.513 498.788 381.389 497.748 384.363 497.103C393.973 495.453 402.883 502.103 410.133 508.593C412.622 510.659 414.825 513.046 416.683 515.693C418.683 518.813 419.743 522.443 420.683 526.023C423.293 535.333 425.483 545.753 420.903 554.253Z" fill="black"/>
<path d="M53.6933 245.753C52.7192 246.773 51.9638 247.981 51.4733 249.303C43.39 267.52 38.6154 287.032 37.3733 306.923C37.3951 307.893 37.1715 308.853 36.7233 309.713C36.2814 310.286 35.7895 310.818 35.2533 311.303C34.7665 311.88 34.4032 312.551 34.1859 313.274C33.9687 313.997 33.902 314.757 33.9901 315.507C34.0782 316.257 34.3192 316.98 34.6982 317.633C35.0771 318.286 35.586 318.855 36.1933 319.303C37.8433 316.193 41.7933 315.183 45.3033 314.913C62.1133 313.583 78.5333 321.403 95.3933 320.813C94.2033 316.703 92.4933 312.753 91.5233 308.593C87.2333 290.123 97.9333 270.013 91.3733 252.223C90.0633 248.663 87.8733 245.163 84.4233 243.603C82.9949 243.026 81.5 242.63 79.9733 242.423C75.7133 241.653 67.2333 238.363 63.1133 239.683C61.5933 240.173 60.9933 241.603 59.7333 242.463C57.8233 243.693 55.2833 244.143 53.6933 245.753Z" fill="#FF6347"/>
<path d="M304.183 282.153H97.1233C92.7216 282.153 89.1533 285.721 89.1533 290.123V416.183C89.1533 420.585 92.7216 424.153 97.1233 424.153H304.183C308.585 424.153 312.153 420.585 312.153 416.183V290.123C312.153 285.721 308.585 282.153 304.183 282.153Z" fill="#3F3D56"/>
<path d="M200.153 359.153C203.467 359.153 206.153 356.467 206.153 353.153C206.153 349.839 203.467 347.153 200.153 347.153C196.84 347.153 194.153 349.839 194.153 353.153C194.153 356.467 196.84 359.153 200.153 359.153Z" fill="white"/>
<path d="M118.873 68.9932C115.513 71.4232 113.213 74.9132 110.873 78.2632C106.563 84.4532 101.683 90.6332 94.7931 94.0832C92.1831 95.3932 89.2031 96.3832 87.4731 98.6632C86.4463 100.205 85.7798 101.958 85.5231 103.793C84.2032 110.244 83.5133 116.809 83.4631 123.393C83.4631 126.673 83.6031 130.053 85.0531 133.033C86.4231 135.833 88.8931 138.203 89.4031 141.253C89.7931 143.633 88.9131 146.003 88.6031 148.393C88.2931 150.783 88.8331 153.613 91.0431 154.753C92.2339 155.201 93.4775 155.494 94.7431 155.623C101.393 157.103 103.623 164.903 104.633 171.353C106.893 171.223 107.913 168.633 108.383 166.523L115.313 135.713C116.063 132.373 117.313 128.503 120.643 127.333C122.873 126.563 125.313 127.283 127.643 127.483C136.793 128.233 144.533 121.163 153.483 119.213C156.348 118.635 159.277 118.44 162.193 118.633C169.253 118.983 177.463 121.883 178.963 128.473C179.213 129.543 179.363 130.823 180.363 131.353C181.363 131.883 182.413 131.433 183.463 131.353C187.943 130.903 190.583 135.943 191.873 140.063L196.573 155.063C197.273 157.333 198.453 160.003 200.913 160.293C203.183 160.573 205.113 158.423 205.453 156.293C205.793 154.163 205.053 151.953 204.563 149.813C202.353 139.963 205.733 129.883 207.793 120.013C209.853 110.143 210.223 98.8032 203.313 91.2032C200.803 88.4532 197.503 86.4032 195.163 83.5032C192.983 80.7832 191.753 77.4432 189.493 74.7732C183.243 67.4032 167.213 61.7132 157.383 60.7732C146.153 59.5532 127.953 62.4032 118.873 68.9932Z" fill="#3F3D56"/>
<g opacity="0.1">
<path opacity="0.1" d="M200.953 153.293C198.493 152.993 197.313 150.293 196.613 148.063C195.047 143.056 193.48 138.056 191.913 133.063C190.623 128.933 187.983 123.893 183.503 124.353C182.453 124.463 181.323 124.873 180.403 124.353C179.483 123.833 179.253 122.543 179.003 121.473C177.503 114.873 169.293 111.983 162.233 111.633C159.317 111.442 156.389 111.633 153.523 112.203C144.573 114.203 136.833 121.203 127.683 120.473C125.323 120.283 122.883 119.563 120.683 120.333C117.313 121.493 116.103 125.333 115.353 128.713L108.423 159.513C107.953 161.633 106.933 164.223 104.673 164.343C103.673 157.903 101.433 150.103 94.7832 148.623C93.5192 148.484 92.2768 148.192 91.0832 147.753C90.2132 147.278 89.5321 146.519 89.1532 145.603C88.9732 146.533 88.7632 147.463 88.6432 148.393C88.3432 150.773 88.8732 153.613 91.0832 154.753C92.274 155.201 93.5176 155.493 94.7832 155.623C101.433 157.103 103.663 164.903 104.673 171.353C106.933 171.223 107.953 168.633 108.423 166.523L115.353 135.713C116.103 132.373 117.353 128.503 120.683 127.333C122.913 126.563 125.353 127.283 127.683 127.483C136.833 128.233 144.573 121.163 153.523 119.213C156.388 118.635 159.317 118.44 162.233 118.633C169.293 118.983 177.503 121.883 179.003 128.473C179.253 129.543 179.403 130.823 180.403 131.353C181.403 131.883 182.453 131.433 183.503 131.353C187.983 130.903 190.623 135.943 191.913 140.063C193.473 145.07 195.04 150.07 196.613 155.063C197.313 157.333 198.493 160.003 200.953 160.293C203.223 160.573 205.153 158.423 205.493 156.293C205.647 154.501 205.443 152.696 204.893 150.983C204.536 151.713 203.972 152.321 203.272 152.732C202.571 153.143 201.764 153.338 200.953 153.293V153.293Z" fill="black"/>
<path opacity="0.1" d="M89.4131 134.253C88.9031 131.203 86.4131 128.833 85.0631 126.033C84.1952 124.145 83.693 122.109 83.5831 120.033C83.5831 121.153 83.4831 122.273 83.4731 123.403C83.4731 126.683 83.6131 130.063 85.0631 133.043C86.1731 135.313 88.0031 137.313 88.9231 139.623C89.4082 137.877 89.5742 136.058 89.4131 134.253V134.253Z" fill="black"/>
<path opacity="0.1" d="M207.833 112.973C206.013 121.693 203.173 130.573 204.053 139.313C204.623 132.863 206.503 126.373 207.833 119.973C208.943 115.113 209.333 110.117 208.993 105.143C208.776 107.775 208.389 110.391 207.833 112.973Z" fill="black"/>
</g>
<path d="M930.723 0.34668H319.261V391.954H930.723V0.34668Z" fill="#E6E6E6"/>
<path d="M913.342 49H336.85V368.322H913.342V49Z" fill="white"/>
<path d="M930.461 0H319V25.9771H930.461V0Z" fill="#FF6347"/>
<path d="M338.304 18.0956C340.963 18.0956 343.119 15.94 343.119 13.281C343.119 10.6219 340.963 8.46631 338.304 8.46631C335.645 8.46631 333.49 10.6219 333.49 13.281C333.49 15.94 335.645 18.0956 338.304 18.0956Z" fill="white"/>
<path d="M356.579 18.0956C359.239 18.0956 361.394 15.94 361.394 13.281C361.394 10.6219 359.239 8.46631 356.579 8.46631C353.92 8.46631 351.765 10.6219 351.765 13.281C351.765 15.94 353.92 18.0956 356.579 18.0956Z" fill="white"/>
<path d="M374.855 18.0956C377.514 18.0956 379.669 15.94 379.669 13.281C379.669 10.6219 377.514 8.46631 374.855 8.46631C372.196 8.46631 370.04 10.6219 370.04 13.281C370.04 15.94 372.196 18.0956 374.855 18.0956Z" fill="white"/>
<path d="M750.117 79.3725H562.429C562.029 79.3197 561.661 79.1231 561.395 78.8192C561.128 78.5154 560.981 78.125 560.981 77.7209C560.981 77.3168 561.128 76.9265 561.395 76.6226C561.661 76.3188 562.029 76.1221 562.429 76.0693H750.117C750.517 76.1221 750.885 76.3188 751.151 76.6226C751.418 76.9265 751.565 77.3168 751.565 77.7209C751.565 78.125 751.418 78.5154 751.151 78.8192C750.885 79.1231 750.517 79.3197 750.117 79.3725V79.3725Z" fill="#CCCCCC"/>
<path d="M620.068 97.54H500.736C500.335 97.4872 499.968 97.2905 499.701 96.9867C499.435 96.6828 499.288 96.2925 499.288 95.8884C499.288 95.4843 499.435 95.094 499.701 94.7901C499.968 94.4863 500.335 94.2896 500.736 94.2368H620.068C620.469 94.2896 620.836 94.4863 621.103 94.7901C621.369 95.094 621.516 95.4843 621.516 95.8884C621.516 96.2925 621.369 96.6828 621.103 96.9867C620.836 97.2905 620.469 97.4872 620.068 97.54V97.54Z" fill="#CCCCCC"/>
<path d="M750.117 97.8703H630.785C630.384 97.8175 630.016 97.6208 629.75 97.317C629.483 97.0131 629.336 96.6228 629.336 96.2187C629.336 95.8146 629.483 95.4243 629.75 95.1204C630.016 94.8166 630.384 94.6199 630.785 94.5671H750.117C750.517 94.6199 750.885 94.8166 751.151 95.1204C751.418 95.4243 751.565 95.8146 751.565 96.2187C751.565 96.6228 751.418 97.0131 751.151 97.317C750.885 97.6208 750.517 97.8175 750.117 97.8703H750.117Z" fill="#CCCCCC"/>
<path d="M620.358 115.707H501.026C500.625 115.655 500.257 115.458 499.991 115.154C499.724 114.85 499.578 114.46 499.578 114.056C499.578 113.652 499.724 113.261 499.991 112.958C500.257 112.654 500.625 112.457 501.026 112.404H620.358C620.758 112.457 621.126 112.654 621.393 112.958C621.659 113.261 621.806 113.652 621.806 114.056C621.806 114.46 621.659 114.85 621.393 115.154C621.126 115.458 620.758 115.655 620.358 115.707V115.707Z" fill="#CCCCCC"/>
<path d="M620.647 133.875H501.315C500.915 133.822 500.547 133.626 500.28 133.322C500.014 133.018 499.867 132.627 499.867 132.223C499.867 131.819 500.014 131.429 500.28 131.125C500.547 130.821 500.915 130.625 501.315 130.572H620.647C621.048 130.625 621.416 130.821 621.682 131.125C621.948 131.429 622.095 131.819 622.095 132.223C622.095 132.627 621.948 133.018 621.682 133.322C621.416 133.626 621.048 133.822 620.647 133.875V133.875Z" fill="#CCCCCC"/>
<path d="M674.81 115.707H640.632C640.232 115.655 639.864 115.458 639.597 115.154C639.331 114.85 639.184 114.46 639.184 114.056C639.184 113.652 639.331 113.261 639.597 112.958C639.864 112.654 640.232 112.457 640.632 112.404H674.81C675.211 112.457 675.578 112.654 675.845 112.958C676.111 113.261 676.258 113.652 676.258 114.056C676.258 114.46 676.111 114.85 675.845 115.154C675.578 115.458 675.211 115.655 674.81 115.707V115.707Z" fill="#CCCCCC"/>
<path d="M674.81 133.545H640.632C640.232 133.492 639.864 133.295 639.597 132.991C639.331 132.687 639.184 132.297 639.184 131.893C639.184 131.489 639.331 131.099 639.597 130.795C639.864 130.491 640.232 130.294 640.632 130.241H674.81C675.211 130.294 675.578 130.491 675.845 130.795C676.111 131.099 676.258 131.489 676.258 131.893C676.258 132.297 676.111 132.687 675.845 132.991C675.578 133.295 675.211 133.492 674.81 133.545V133.545Z" fill="#CCCCCC"/>
<path d="M732.159 133.545H697.981C697.581 133.492 697.213 133.295 696.946 132.991C696.68 132.687 696.533 132.297 696.533 131.893C696.533 131.489 696.68 131.099 696.946 130.795C697.213 130.491 697.581 130.294 697.981 130.241H732.159C732.56 130.294 732.927 130.491 733.194 130.795C733.46 131.099 733.607 131.489 733.607 131.893C733.607 132.297 733.46 132.687 733.194 132.991C732.927 133.295 732.56 133.492 732.159 133.545V133.545Z" fill="#CCCCCC"/>
<path d="M534.045 79.3725H499.867C499.466 79.3197 499.099 79.1231 498.832 78.8192C498.566 78.5154 498.419 78.125 498.419 77.7209C498.419 77.3168 498.566 76.9265 498.832 76.6226C499.099 76.3188 499.466 76.1221 499.867 76.0693H534.045C534.445 76.1221 534.813 76.3188 535.08 76.6226C535.346 76.9265 535.493 77.3168 535.493 77.7209C535.493 78.125 535.346 78.5154 535.08 78.8192C534.813 79.1231 534.445 79.3197 534.045 79.3725Z" fill="#CCCCCC"/>
<path d="M619.634 287.678H500.302C499.901 287.626 499.533 287.429 499.267 287.125C499 286.821 498.853 286.431 498.853 286.027C498.853 285.623 499 285.232 499.267 284.929C499.533 284.625 499.901 284.428 500.302 284.375H619.634C620.034 284.428 620.402 284.625 620.668 284.929C620.935 285.232 621.082 285.623 621.082 286.027C621.082 286.431 620.935 286.821 620.668 287.125C620.402 287.429 620.034 287.626 619.634 287.678H619.634Z" fill="#CCCCCC"/>
<path d="M619.054 324.013H499.722C499.322 323.961 498.954 323.764 498.687 323.46C498.421 323.156 498.274 322.766 498.274 322.362C498.274 321.958 498.421 321.567 498.687 321.263C498.954 320.96 499.322 320.763 499.722 320.71H619.054C619.455 320.763 619.823 320.96 620.089 321.263C620.356 321.567 620.502 321.958 620.502 322.362C620.502 322.766 620.356 323.156 620.089 323.46C619.823 323.764 619.455 323.961 619.054 324.013H619.054Z" fill="#CCCCCC"/>
<path d="M619.344 342.181H500.012C499.611 342.128 499.243 341.931 498.977 341.627C498.711 341.324 498.564 340.933 498.564 340.529C498.564 340.125 498.711 339.735 498.977 339.431C499.243 339.127 499.611 338.93 500.012 338.877H619.344C619.745 338.93 620.112 339.127 620.379 339.431C620.645 339.735 620.792 340.125 620.792 340.529C620.792 340.933 620.645 341.324 620.379 341.627C620.112 341.931 619.745 342.128 619.344 342.181H619.344Z" fill="#CCCCCC"/>
<path d="M670.32 324.344H636.143C635.742 324.291 635.374 324.094 635.108 323.79C634.842 323.487 634.695 323.096 634.695 322.692C634.695 322.288 634.842 321.898 635.108 321.594C635.374 321.29 635.742 321.093 636.143 321.041H670.32C670.721 321.093 671.089 321.29 671.355 321.594C671.622 321.898 671.769 322.288 671.769 322.692C671.769 323.096 671.622 323.487 671.355 323.79C671.089 324.094 670.721 324.291 670.32 324.344V324.344Z" fill="#CCCCCC"/>
<path d="M670.32 342.181H636.143C635.742 342.128 635.374 341.931 635.108 341.627C634.842 341.324 634.695 340.933 634.695 340.529C634.695 340.125 634.842 339.735 635.108 339.431C635.374 339.127 635.742 338.93 636.143 338.877H670.32C670.721 338.93 671.089 339.127 671.355 339.431C671.622 339.735 671.769 340.125 671.769 340.529C671.769 340.933 671.622 341.324 671.355 341.627C671.089 341.931 670.721 342.128 670.32 342.181V342.181Z" fill="#CCCCCC"/>
<path d="M727.669 324.344H693.492C693.091 324.291 692.723 324.094 692.457 323.79C692.19 323.487 692.044 323.096 692.044 322.692C692.044 322.288 692.19 321.898 692.457 321.594C692.723 321.29 693.091 321.093 693.492 321.041H727.669C728.07 321.093 728.438 321.29 728.704 321.594C728.971 321.898 729.118 322.288 729.118 322.692C729.118 323.096 728.971 323.487 728.704 323.79C728.438 324.094 728.07 324.291 727.669 324.344V324.344Z" fill="#CCCCCC"/>
<path d="M750.261 305.846H562.574C562.174 305.793 561.806 305.596 561.539 305.293C561.273 304.989 561.126 304.598 561.126 304.194C561.126 303.79 561.273 303.4 561.539 303.096C561.806 302.792 562.174 302.596 562.574 302.543H750.261C750.662 302.596 751.03 302.792 751.296 303.096C751.563 303.4 751.71 303.79 751.71 304.194C751.71 304.598 751.563 304.989 751.296 305.293C751.03 305.596 750.662 305.793 750.261 305.846V305.846Z" fill="#CCCCCC"/>
<path d="M534.189 305.846H500.012C499.611 305.793 499.243 305.596 498.977 305.293C498.711 304.989 498.564 304.598 498.564 304.194C498.564 303.79 498.711 303.4 498.977 303.096C499.243 302.792 499.611 302.596 500.012 302.543H534.189C534.59 302.596 534.958 302.792 535.224 303.096C535.491 303.4 535.638 303.79 535.638 304.194C535.638 304.598 535.491 304.989 535.224 305.293C534.958 305.596 534.59 305.793 534.189 305.846V305.846Z" fill="#CCCCCC"/>
<path d="M590.815 163.221L544.472 208.985L590.815 254.748L601.242 244.321L566.195 209.274L601.531 173.938L590.815 163.221Z" fill="#E6E6E6"/>
<path d="M659.17 163.221L705.512 208.985L659.17 254.748L648.743 244.321L683.789 209.274L648.453 173.938L659.17 163.221Z" fill="#E6E6E6"/>
<path d="M590.815 163.221L544.472 208.985L590.815 254.748L601.242 244.321L566.195 209.274L601.531 173.938L590.815 163.221Z" fill="#FF6347"/>
<path d="M659.17 163.221L705.512 208.985L659.17 254.748L648.743 244.321L683.789 209.274L648.453 173.938L659.17 163.221Z" fill="#FF6347"/>
<defs>
<linearGradient id="paint0_linear" x1="211.653" y1="566.153" x2="211.653" y2="54.9532" gradientUnits="userSpaceOnUse">
<stop stop-color="#808080" stop-opacity="0.25"/>
<stop offset="0.54" stop-color="#808080" stop-opacity="0.12"/>
<stop offset="1" stop-color="#808080" stop-opacity="0.1"/>
</linearGradient>
</defs>
</svg>
